<svg xmlns="http://www.w3.org/2000/svg" width="28" height="26.846" viewBox="0 0 28 26.846">
  <path id="Cart" d="M2.313,2.33a1.313,1.313,0,1,0,0,2.625H5.85l.933,4.661q.008.053.021.1L8.73,19.342h0a3.619,3.619,0,0,0,3.605,2.912H23.524a3.62,3.62,0,0,0,3.605-2.914h0l0-.01,1.845-9.677A1.313,1.313,0,0,0,27.687,8.1H9.156L8.213,3.385A1.313,1.313,0,0,0,6.926,2.33Zm8.992,16.5L9.682,10.722H26.1l-1.547,8.113a.995.995,0,0,1-.994.8H12.3a.994.994,0,0,1-.994-.8Zm.235,8.041a.16.16,0,1,0-.16-.16A.16.16,0,0,0,11.54,26.87Zm-2.465-.16a2.465,2.465,0,1,1,2.465,2.465A2.465,2.465,0,0,1,9.074,26.711Zm15.153.16a.16.16,0,1,0-.16-.16A.16.16,0,0,0,24.227,26.87Zm-2.465-.16a2.465,2.465,0,1,1,2.465,2.465A2.465,2.465,0,0,1,21.762,26.711Z" transform="translate(-1 -2.33)" fill="#fff" fill-rule="evenodd"/>
</svg>
