<svg xmlns="http://www.w3.org/2000/svg" width="16" height="16.932" viewBox="0 0 16 16.932">
  <g id="city" transform="translate(-3 -2.417)">
    <path id="Path_1353" data-name="Path 1353" d="M13.667,10.238V5.527a1.814,1.814,0,0,0-.524-1.285l-1.52-1.558a.87.87,0,0,0-1.253,0L8.858,4.233a1.851,1.851,0,0,0-.524,1.294V6.593H4.778A1.806,1.806,0,0,0,3,8.415v9.112A1.806,1.806,0,0,0,4.778,19.35H17.222A1.806,1.806,0,0,0,19,17.527V12.06a1.806,1.806,0,0,0-1.778-1.822ZM6.556,17.527H4.778V15.7H6.556Zm0-3.645H4.778V12.06H6.556Zm0-3.645H4.778V8.415H6.556Zm5.333,7.289H10.111V15.7h1.778Zm0-3.645H10.111V12.06h1.778Zm0-3.645H10.111V8.415h1.778Zm0-3.645H10.111V4.771h1.778Zm5.333,10.934H15.444V15.7h1.778Zm0-3.645H15.444V12.06h1.778Z" transform="translate(0 0)" fill="#fff"/>
  </g>
</svg>
