<svg xmlns="http://www.w3.org/2000/svg" width="22" height="22" viewBox="0 0 22 22">
  <path id="contacts" d="M14.375,3.375h0A11,11,0,0,0,3.438,13.217a10.6,10.6,0,0,0,0,2.316,11,11,0,0,0,10.937,9.842h0a11,11,0,0,0,0-22Zm7.182,17.246c-1.2-.455-3.147-1.121-4.358-1.481-.127-.037-.143-.048-.143-.566a3.009,3.009,0,0,1,.349-1.232,6.146,6.146,0,0,0,.487-1.671,3.716,3.716,0,0,0,.719-1.74,2.321,2.321,0,0,0-.021-1.46.937.937,0,0,1-.032-.09,9.51,9.51,0,0,1,.164-2.052,3.778,3.778,0,0,0-.788-2.713A4.042,4.042,0,0,0,14.84,6.136h-.925a4.037,4.037,0,0,0-3.067,1.481,3.762,3.762,0,0,0-.793,2.713,9.51,9.51,0,0,1,.164,2.052c-.011.037-.021.063-.032.1a2.282,2.282,0,0,0-.021,1.46,3.773,3.773,0,0,0,.719,1.74,6.4,6.4,0,0,0,.487,1.671,2.954,2.954,0,0,1,.2,1.248c0,.524-.021.529-.137.566-1.253.37-3.115,1.026-4.231,1.47a9.519,9.519,0,0,1,13.9-12.988,9.519,9.519,0,0,1,.45,12.978Z" transform="translate(-3.375 -3.375)" fill="#fff"/>
</svg>
