<svg xmlns="http://www.w3.org/2000/svg" width="16" height="16" viewBox="0 0 16 16">
  <path id="contacts" d="M11.375,3.375h0a8,8,0,0,0-7.954,7.156,7.709,7.709,0,0,0,0,1.686,8,8,0,0,0,7.954,7.158h0a8,8,0,1,0,0-16ZM16.6,15.917c-.873-.331-2.289-.815-3.169-1.077-.092-.027-.1-.035-.1-.412a2.188,2.188,0,0,1,.254-.9,4.47,4.47,0,0,0,.354-1.215,2.7,2.7,0,0,0,.523-1.265A1.688,1.688,0,0,0,14.44,9.99a.681.681,0,0,1-.023-.065,6.916,6.916,0,0,1,.119-1.492,2.748,2.748,0,0,0-.573-1.973,2.94,2.94,0,0,0-2.25-1.076H11.04A2.936,2.936,0,0,0,8.81,6.46a2.736,2.736,0,0,0-.577,1.973,6.916,6.916,0,0,1,.119,1.492c-.008.027-.015.046-.023.073a1.66,1.66,0,0,0-.015,1.062,2.744,2.744,0,0,0,.523,1.265,4.654,4.654,0,0,0,.354,1.215,2.148,2.148,0,0,1,.145.908c0,.381-.015.385-.1.412-.911.269-2.265.746-3.077,1.069A6.922,6.922,0,1,1,16.6,15.922Z" transform="translate(-3.375 -3.375)" fill="#fff"/>
</svg>
