<svg xmlns="http://www.w3.org/2000/svg" width="15.833" height="15.8" viewBox="0 0 15.833 15.8">
  <g id="coutry" transform="translate(-16.083 -16.05)">
    <path id="Path_1354" data-name="Path 1354" d="M12.594.5A3.653,3.653,0,0,0,10.91.9,7.913,7.913,0,0,0,2.184,3.532h0A7.815,7.815,0,0,0,.5,8.417h0A7.746,7.746,0,0,0,2.184,13.3h0A7.761,7.761,0,0,0,6.193,16a8.054,8.054,0,0,0,2.223.3h0a7.912,7.912,0,0,0,7.917-7.917,7.308,7.308,0,0,0-.438-2.56,4.668,4.668,0,0,0,.438-1.617A3.746,3.746,0,0,0,12.594.5Zm2.864,6.266a5.853,5.853,0,0,1,.168,1.314h-.943V8.046c.034-.067.067-.1.1-.168a1.465,1.465,0,0,0,.135-.236c.034-.034.067-.1.1-.135.034-.1.1-.168.135-.27.034-.034.034-.1.067-.135.067-.1.135-.236.2-.337.034.034.034,0,.034,0Zm-9.4,8.49c-.067-.034-.1-.034-.168-.067a.479.479,0,0,0-.2-.067c-.067-.034-.1-.034-.168-.067l-.2-.1c-.034-.034-.1-.034-.135-.067l-.2-.1c-.034-.034-.1-.034-.135-.067a.7.7,0,0,1-.2-.135.255.255,0,0,0-.135-.067c-.067-.034-.135-.1-.2-.135-.034-.034-.067-.067-.1-.067a1.426,1.426,0,0,0-.236-.168c-.034-.034-.067-.034-.1-.067-.067-.067-.168-.135-.236-.2-.034-.034-.034-.067-.067-.067a4.338,4.338,0,0,1-.539-.573,12.84,12.84,0,0,1,1.718-.573,6.783,6.783,0,0,0,1.55,2.661h0A.487.487,0,0,1,6.059,15.256ZM2.555,4.138c.067.034.168.067.236.1a3.5,3.5,0,0,0,.337.135c.135.034.236.1.371.135.1.034.236.067.337.1.135.034.27.067.371.1l.3.1A13.884,13.884,0,0,0,4.037,8.08H1.174A7.149,7.149,0,0,1,2.555,4.138ZM13,14.043a1.426,1.426,0,0,1-.236.168c-.034.034-.067.034-.1.067a.7.7,0,0,1-.2.135c-.034.034-.067.034-.1.067-.067.034-.135.1-.2.135-.034.034-.067.034-.135.067l-.2.1c-.034.034-.1.034-.135.067l-.2.1c-.034.034-.1.034-.135.067l-.2.1c-.034.034-.1.034-.135.067a.479.479,0,0,1-.2.067.3.3,0,0,1-.168.034h-.034a6.692,6.692,0,0,0,1.55-2.7,12.84,12.84,0,0,1,1.718.573,5.337,5.337,0,0,1-.775.741C13.032,14.009,13,14.009,13,14.043ZM5.317,4.981a1.707,1.707,0,0,0,.438.067c.1.034.236.034.337.067.135.034.3.034.472.067.1,0,.2.034.3.034a2.55,2.55,0,0,0,.505.034.742.742,0,0,1,.27.034h.472v2.8H4.778a14.625,14.625,0,0,1,.438-3.1ZM9.8,1.746l-.067.067v.034c-.034.067-.1.1-.135.168a.033.033,0,0,1-.034.034c-.034.034-.067.067-.067.1-.034.034-.067.1-.1.135,0,.034-.034.034-.034.067-.034.034-.034.067-.067.1-.034.067-.067.1-.067.168,0,.034-.034.034-.034.067s-.034.067-.034.1c-.034.067-.034.1-.067.168,0,.034-.034.067-.034.1s0,.067-.034.067c-.034.067-.034.135-.067.2,0,.034-.034.067-.034.1V3.5c0,.067-.034.168-.034.236v.135c0,.135-.034.236-.034.371a1.511,1.511,0,0,0,.034.371h-.1v-3.4A2.13,2.13,0,0,1,9.8,1.746ZM9.562,6.463a15.554,15.554,0,0,0,.943,1.617H8.754v-2.8h.27v.067c0,.034.034.067.034.1.034.067.034.1.067.168a1.2,1.2,0,0,0,.135.3c.034.034.034.1.067.135.034.1.1.2.135.3.067,0,.067.034.1.1ZM8.08,8.754v2.8a15.85,15.85,0,0,0-2.864.337,11.289,11.289,0,0,1-.438-3.1h3.3Zm0,3.47v3.4c-1.078-.2-2.055-1.415-2.661-3.133A13.708,13.708,0,0,1,8.08,12.224Zm.674,3.4v-3.4a17.833,17.833,0,0,1,2.7.3C10.809,14.245,9.832,15.424,8.754,15.626Zm0-4.076v-2.8H10.91c.371.573.707,1.044.977,1.415.034.034.034.067.067.1a11.419,11.419,0,0,1-.337,1.617A11.491,11.491,0,0,0,8.754,11.55ZM8.08,1.207v3.4H7.44c-.168,0-.337-.034-.505-.034-.1,0-.2-.034-.27-.034-.135-.034-.3-.034-.438-.067-.1,0-.2-.034-.3-.034-.135-.034-.27-.034-.4-.067H5.452C6.025,2.622,7,1.41,8.08,1.207ZM4.071,8.754a13.884,13.884,0,0,0,.472,3.268,12.138,12.138,0,0,0-1.954.674A6.933,6.933,0,0,1,1.174,8.754ZM14.245,12.7a13.387,13.387,0,0,0-1.954-.674c.1-.337.168-.674.236-1.011l.067.067.27-.337a.252.252,0,0,1,.1-.1h0c.034-.034.034-.067.067-.1a.033.033,0,0,1,.034-.034l.1-.1c0-.034.034-.034.034-.067.034-.034.067-.1.1-.135l.067-.067c.034-.034.067-.1.1-.135s.034-.067.067-.1c.034-.067.067-.1.1-.168.034-.034.067-.1.1-.135.067-.067.1-.168.168-.236.034-.067.1-.135.135-.2.034-.034.067-.1.1-.135.034-.067.1-.135.135-.2a.033.033,0,0,1,.034-.034h1.381A7.213,7.213,0,0,1,14.245,12.7ZM15.66,4.239a3.534,3.534,0,0,1-.438,1.449c-.034.1-.1.2-.135.3a30.119,30.119,0,0,1-2.493,3.975,27.246,27.246,0,0,1-1.785-2.661h0A1.366,1.366,0,0,1,10.64,7c0-.034-.034-.034-.034-.067-.034-.1-.1-.168-.135-.27-.034-.034-.034-.067-.067-.1l-.1-.2c-.034-.067-.067-.1-.067-.168-.034-.067-.067-.1-.067-.168l-.1-.2c-.034-.034-.034-.067-.067-.1-.034-.067-.067-.168-.1-.236,0-.034-.034-.067-.034-.1-.034-.067-.067-.168-.1-.236l-.1-.3h0a2.265,2.265,0,0,1-.1-.606A1.382,1.382,0,0,1,9.6,3.869a.124.124,0,0,1,.034-.1A.487.487,0,0,1,9.7,3.532c0-.034.034-.1.034-.135A.625.625,0,0,0,9.8,3.161c-.067-.067-.034-.1-.034-.135a1.366,1.366,0,0,1,.168-.3c.034-.034.034-.067.067-.1a.336.336,0,0,1,.135-.168c.034-.034.067-.1.1-.135a.465.465,0,0,0,.1-.135c.034-.067.1-.1.168-.168.034-.034.067-.067.1-.067.067-.034.1-.1.168-.135l.3-.2h0a2.885,2.885,0,0,1,1.482-.4A3.035,3.035,0,0,1,15.66,4.239ZM6.294,1.511a6.783,6.783,0,0,0-1.55,2.661c-.067-.034-.168-.034-.236-.067L4.1,4l-.3-.1c-.135-.034-.27-.1-.371-.135a2.321,2.321,0,0,1-.27-.1c-.067-.034-.1-.067-.135-.067A6.765,6.765,0,0,1,6.294,1.511Z" transform="translate(15.583 15.55)" fill="#fff"/>
    <path id="Path_1355" data-name="Path 1355" d="M32.355,9.61A2.055,2.055,0,1,0,30.3,7.555,2.042,2.042,0,0,0,32.355,9.61Zm0-3.436a1.381,1.381,0,1,1-1.381,1.381A1.366,1.366,0,0,1,32.355,6.174Z" transform="translate(-4.177 12.234)" fill="#fff"/>
  </g>
</svg>
