<svg xmlns="http://www.w3.org/2000/svg" viewBox="0 0 64 64"><path fill="#faa307" d="M51.747 9.49 49.08 4.871a1.778 1.778 0 0 0-2.428-.651l-41.569 24a1.777 1.777 0 0 0-.65 2.428L7.1 35.267a6.667 6.667 0 1 1 6.667 11.547l2.222 3.849a2.667 2.667 0 0 0 3.643.976L59.66 28.528a2.667 2.667 0 0 0 .976-3.643l-2.223-3.848A6.666 6.666 0 0 1 51.747 9.49Z"/><path fill="#ffd100" d="M61 36v-6a2 2 0 0 0-2-2H5a2 2 0 0 0-2 2v6a7.5 7.5 0 0 1 0 15v5a3 3 0 0 0 3 3h52a3 3 0 0 0 3-3v-5a7.5 7.5 0 0 1 0-15Z"/><circle cx="34" cy="38" r="3" fill="#fff"/><circle cx="46" cy="50" r="3" fill="#fff"/><path fill="#fff" d="M32.5 51.5a2.109 2.109 0 0 1 .009-2.991l12.077-11.923a2 2 0 0 1 2.828 2.828L35.491 51.491a2.109 2.109 0 0 1-2.991.009zM23 32a1 1 0 0 0 1-1v-3h-2v3a1 1 0 0 0 1 1zm0 10a1 1 0 0 0 1-1v-5a1 1 0 0 0-2 0v5a1 1 0 0 0 1 1zm0 10a1 1 0 0 0 1-1v-5a1 1 0 0 0-2 0v5a1 1 0 0 0 1 1zm0 3a1 1 0 0 0-1 1v3h2v-3a1 1 0 0 0-1-1z"/></svg>