<svg id="Grid" xmlns="http://www.w3.org/2000/svg" width="24" height="24" viewBox="0 0 24 24">
  <path id="Path_20" data-name="Path 20" d="M19.25,13.25h-6v6h6Zm-6-2.25h6a2.25,2.25,0,0,1,2.25,2.25v6a2.25,2.25,0,0,1-2.25,2.25h-6A2.25,2.25,0,0,1,11,19.25v-6A2.25,2.25,0,0,1,13.25,11Z" transform="translate(2.5 2.5)" fill="#fff" fill-rule="evenodd"/>
  <path id="Path_21" data-name="Path 21" d="M10.25,4.25h-6v6h6Zm13.5,0h-6v6h6Zm-13.5,13.5h-6v6h6ZM10.25,2h-6A2.25,2.25,0,0,0,2,4.25v6A2.25,2.25,0,0,0,4.25,12.5h6a2.25,2.25,0,0,0,2.25-2.25v-6A2.25,2.25,0,0,0,10.25,2Zm13.5,0h-6A2.25,2.25,0,0,0,15.5,4.25v6a2.25,2.25,0,0,0,2.25,2.25h6A2.25,2.25,0,0,0,26,10.25v-6A2.25,2.25,0,0,0,23.75,2ZM4.25,15.5h6a2.25,2.25,0,0,1,2.25,2.25v6A2.25,2.25,0,0,1,10.25,26h-6A2.25,2.25,0,0,1,2,23.75v-6A2.25,2.25,0,0,1,4.25,15.5Z" transform="translate(-2 -2)" fill="#fff" fill-rule="evenodd"/>
</svg>
