<svg id="Grid" xmlns="http://www.w3.org/2000/svg" width="23" height="23" viewBox="0 0 23 23">
  <path id="Path_20" data-name="Path 20" d="M19.25,13.25h-6v6h6Zm-6-2.25h6a2.25,2.25,0,0,1,2.25,2.25v6a2.25,2.25,0,0,1-2.25,2.25h-6A2.25,2.25,0,0,1,11,19.25v-6A2.25,2.25,0,0,1,13.25,11Z" transform="translate(1.5 1.5)" fill="#fff" fill-rule="evenodd"/>
  <path id="Path_21" data-name="Path 21" d="M9.906,4.156H4.156v5.75h5.75Zm12.938,0h-5.75v5.75h5.75ZM9.906,17.094H4.156v5.75h5.75ZM9.906,2H4.156A2.156,2.156,0,0,0,2,4.156v5.75a2.156,2.156,0,0,0,2.156,2.156h5.75a2.156,2.156,0,0,0,2.156-2.156V4.156A2.156,2.156,0,0,0,9.906,2ZM22.844,2h-5.75a2.156,2.156,0,0,0-2.156,2.156v5.75a2.156,2.156,0,0,0,2.156,2.156h5.75A2.156,2.156,0,0,0,25,9.906V4.156A2.156,2.156,0,0,0,22.844,2ZM4.156,14.937h5.75a2.156,2.156,0,0,1,2.156,2.156v5.75A2.156,2.156,0,0,1,9.906,25H4.156A2.156,2.156,0,0,1,2,22.844v-5.75a2.156,2.156,0,0,1,2.156-2.156Z" transform="translate(-2 -2)" fill="#fff" fill-rule="evenodd"/>
</svg>
