<svg xmlns="http://www.w3.org/2000/svg" width="16" height="15.997" viewBox="0 0 16 15.997">
  <path id="mail-bulk" d="M4.443,14c-.711,0-1.422-.7-1.777-1C.888,11.6.355,11.1,0,10.8V15a.95.95,0,0,0,.889,1H8a.95.95,0,0,0,.889-1V10.8c-.356.3-.889.8-2.666,2.2C5.865,13.3,5.154,14,4.443,14ZM8,8H.888A.95.95,0,0,0,0,9v.5c.711.6.622.6,3.2,2.7.267.2.8.8,1.244.8s.977-.6,1.244-.7c2.577-2.1,2.488-2.1,3.2-2.7V9A.95.95,0,0,0,8,8Zm7.11-3H6.221a.95.95,0,0,0-.889,1V7H8A1.875,1.875,0,0,1,9.767,8.8L9.775,8.8V13h5.332A.95.95,0,0,0,16,12V6a.95.95,0,0,0-.889-1Zm-.889,4H12.442V7h1.777ZM4.443,6A1.9,1.9,0,0,1,6.221,4h6.221V1a.95.95,0,0,0-.889-1H2.666a.95.95,0,0,0-.889,1V7H4.443Z" transform="translate(0.002)" fill="#fff"/>
</svg>
