<svg xmlns="http://www.w3.org/2000/svg" width="22" height="22" viewBox="0 0 22 22">
  <path id="mail-bulk" d="M6.111,19.25c-.978,0-1.956-.963-2.444-1.375C1.222,15.95.489,15.262,0,14.85v5.775A1.306,1.306,0,0,0,1.222,22H11a1.306,1.306,0,0,0,1.222-1.375V14.85c-.489.413-1.222,1.1-3.667,3.025C8.067,18.287,7.089,19.25,6.111,19.25ZM11,11H1.222A1.306,1.306,0,0,0,0,12.375v.688c.978.825.856.825,4.4,3.712.367.275,1.1,1.1,1.711,1.1s1.344-.825,1.711-.962c3.544-2.887,3.422-2.887,4.4-3.713v-.825A1.306,1.306,0,0,0,11,11Zm9.778-4.125H8.556A1.306,1.306,0,0,0,7.333,8.25V9.625H11a2.579,2.579,0,0,1,2.433,2.484l.011-.009v5.775h7.333A1.306,1.306,0,0,0,22,16.5V8.25A1.306,1.306,0,0,0,20.778,6.875Zm-1.222,5.5H17.111V9.625h2.444ZM6.111,8.25A2.614,2.614,0,0,1,8.556,5.5h8.556V1.375A1.306,1.306,0,0,0,15.889,0H3.667A1.306,1.306,0,0,0,2.444,1.375v8.25H6.111Z" fill="#fff"/>
</svg>
