<svg id="Mail" xmlns="http://www.w3.org/2000/svg" width="24" height="19.635" viewBox="0 0 24 19.635">
  <path id="Mail-2" data-name="Mail" d="M4.375,6.3A1.055,1.055,0,0,1,5.3,5.748H22.684a1.055,1.055,0,0,1,.922.553l-9.616,6.731ZM2,6.778q0,.016,0,.033V19.838a3.3,3.3,0,0,0,3.3,3.3H22.684a3.3,3.3,0,0,0,3.3-3.3q0-2.175.009-4.351c.009-2.9.018-5.8-.009-8.694,0,0,0-.009,0-.013V6.767a3.326,3.326,0,0,0-3.3-3.267H5.3A3.3,3.3,0,0,0,2,6.778ZM23.734,8.957V19.838a1.056,1.056,0,0,1-1.049,1.049H5.3a1.056,1.056,0,0,1-1.049-1.049V8.957l9.1,6.369a1.124,1.124,0,0,0,1.289,0Z" transform="translate(-2 -3.5)" fill="#fff" fill-rule="evenodd"/>
</svg>
