<svg xmlns="http://www.w3.org/2000/svg" width="22" height="22" viewBox="0 0 22 22">
  <path id="organization" d="M23.356,10.178H7.642A2.967,2.967,0,0,0,4.5,12.928V14.3A2.7,2.7,0,0,0,6.07,16.672v4.506h6.286v2.75h6.286v-2.75h6.286V16.672A2.7,2.7,0,0,0,26.5,14.3V12.928A2.968,2.968,0,0,0,23.356,10.178ZM10.784,19.8H7.642V14.3H6.07V12.928a1.484,1.484,0,0,1,1.571-1.375H9.648a2.469,2.469,0,0,0-.435,1.375v2.75a2.7,2.7,0,0,0,1.571,2.369V19.8Zm7.857-2.75V14.3H17.07v8.25H13.927V14.3H12.356v2.75a1.483,1.483,0,0,1-1.571-1.375v-2.75a1.484,1.484,0,0,1,1.571-1.375h6.286a1.483,1.483,0,0,1,1.571,1.375v2.75a1.482,1.482,0,0,1-1.571,1.375Zm6.286-2.75H23.356v5.5H20.213V18.047a2.7,2.7,0,0,0,1.571-2.369v-2.75a2.469,2.469,0,0,0-.436-1.375h2.007a1.483,1.483,0,0,1,1.571,1.375V14.3ZM11.955,8.747a5.1,5.1,0,0,0,7.087,0,3.217,3.217,0,0,0,2.742,1.431,2.968,2.968,0,0,0,3.143-2.75,2.968,2.968,0,0,0-3.143-2.75,3.441,3.441,0,0,0-1.7.444A4.618,4.618,0,0,0,15.5,1.928a4.617,4.617,0,0,0-4.582,3.194,3.445,3.445,0,0,0-1.7-.444A2.967,2.967,0,0,0,6.07,7.428a2.967,2.967,0,0,0,3.143,2.75,3.218,3.218,0,0,0,2.742-1.431Zm9.829-2.694a1.482,1.482,0,0,1,1.571,1.375,1.585,1.585,0,0,1-3.143,0A1.483,1.483,0,0,1,21.784,6.053ZM15.5,3.3a2.968,2.968,0,0,1,3.143,2.75A2.968,2.968,0,0,1,15.5,8.8a2.967,2.967,0,0,1-3.143-2.75A2.967,2.967,0,0,1,15.5,3.3ZM9.213,8.8A1.483,1.483,0,0,1,7.642,7.428,1.483,1.483,0,0,1,9.213,6.053a1.481,1.481,0,0,1,1.571,1.375A1.481,1.481,0,0,1,9.213,8.8Z" transform="translate(-4.499 -1.928)" fill="#fff"/>
</svg>
