<svg xmlns="http://www.w3.org/2000/svg" width="16" height="16.003" viewBox="0 0 16 16.003">
  <path id="organization" d="M18.213,7.927H6.785a2.158,2.158,0,0,0-2.285,2v1A1.964,1.964,0,0,0,5.642,12.65v3.277h4.572v2h4.572v-2h4.572V12.65A1.964,1.964,0,0,0,20.5,10.925v-1a2.159,2.159,0,0,0-2.287-2Zm-9.143,7H6.785v-4H5.642v-1a1.079,1.079,0,0,1,1.143-1h1.46a1.8,1.8,0,0,0-.316,1v2A1.964,1.964,0,0,0,9.07,13.65v1.275Zm5.714-2v-2H13.642v6H11.356v-6H10.213v2a1.079,1.079,0,0,1-1.143-1v-2a1.079,1.079,0,0,1,1.143-1h4.572a1.079,1.079,0,0,1,1.143,1v2a1.078,1.078,0,0,1-1.143,1Zm4.572-2H18.213v4H15.928V13.65a1.964,1.964,0,0,0,1.143-1.723v-2a1.8,1.8,0,0,0-.317-1h1.46a1.079,1.079,0,0,1,1.143,1v1ZM9.922,6.886a3.709,3.709,0,0,0,5.154,0A2.34,2.34,0,0,0,17.07,7.927a2.159,2.159,0,0,0,2.286-2,2.159,2.159,0,0,0-2.286-2,2.5,2.5,0,0,0-1.236.323A3.359,3.359,0,0,0,12.5,1.927,3.358,3.358,0,0,0,9.168,4.25a2.505,2.505,0,0,0-1.236-.323,2.158,2.158,0,0,0-2.289,2,2.158,2.158,0,0,0,2.286,2A2.34,2.34,0,0,0,9.922,6.886ZM17.07,4.927a1.078,1.078,0,0,1,1.143,1,1.153,1.153,0,0,1-2.286,0,1.079,1.079,0,0,1,1.143-1Zm-4.57-2a2.159,2.159,0,0,1,2.286,2,2.159,2.159,0,0,1-2.286,2,2.158,2.158,0,0,1-2.286-2A2.158,2.158,0,0,1,12.5,2.925Zm-4.572,4a1.079,1.079,0,0,1-1.143-1,1.079,1.079,0,0,1,1.143-1,1.077,1.077,0,0,1,1.143,1,1.077,1.077,0,0,1-1.143,1Z" transform="translate(-4.5 -1.924)" fill="#fff"/>
</svg>
