<svg id="Settings" xmlns="http://www.w3.org/2000/svg" width="24" height="24" viewBox="0 0 24 24">
  <path id="Settings-2" data-name="Settings" d="M2.464,9.157a3.15,3.15,0,0,0,1.224,4.392l.261.143c0,.1-.007.208-.008.308s0,.2.008.308l-.261.143a3.15,3.15,0,0,0-1.224,4.392L3.94,21.267a3.2,3.2,0,0,0,4.272,1.1l.237-.131c.3.192.6.371.919.536v.045A3.171,3.171,0,0,0,12.524,26h2.952a3.171,3.171,0,0,0,3.156-3.185V22.77c.315-.165.623-.344.919-.536l.237.131a3.2,3.2,0,0,0,4.272-1.1l1.476-2.424a3.15,3.15,0,0,0-1.224-4.392l-.261-.143c0-.1.007-.208.008-.308s0-.2-.008-.308l.261-.143a3.15,3.15,0,0,0,1.224-4.392L24.06,6.733a3.2,3.2,0,0,0-4.272-1.1l-.237.131c-.3-.192-.6-.371-.919-.536V5.185A3.171,3.171,0,0,0,15.476,2H12.524A3.171,3.171,0,0,0,9.368,5.185v.045c-.315.165-.623.344-.919.536l-.237-.131a3.2,3.2,0,0,0-4.272,1.1ZM8.7,8.941,6.935,7.976a.539.539,0,0,0-.72.145L4.739,10.545a.483.483,0,0,0,.227.664l1.861,1.019a7.2,7.2,0,0,0,0,3.544L4.965,16.791a.483.483,0,0,0-.227.664l1.476,2.424a.539.539,0,0,0,.72.145L8.7,19.059A7.418,7.418,0,0,0,12.032,21v1.815a.506.506,0,0,0,.492.519h2.952a.506.506,0,0,0,.492-.519V21A7.417,7.417,0,0,0,19.3,19.059l1.761.965a.539.539,0,0,0,.72-.145l1.476-2.424a.483.483,0,0,0-.227-.664l-1.861-1.019a7.206,7.206,0,0,0,0-3.544l1.861-1.019a.483.483,0,0,0,.227-.664L21.785,8.121a.539.539,0,0,0-.72-.145L19.3,8.941A7.4,7.4,0,0,0,15.968,7V5.185a.506.506,0,0,0-.492-.519H12.524a.506.506,0,0,0-.492.519V7A7.4,7.4,0,0,0,8.7,8.941ZM13.995,18A4,4,0,1,0,10,14,4,4,0,0,0,13.995,18ZM15.5,14A1.5,1.5,0,1,1,14,12.5,1.5,1.5,0,0,1,15.5,14Z" transform="translate(-2 -2)" fill="#fff" fill-rule="evenodd"/>
</svg>
