<svg xmlns="http://www.w3.org/2000/svg" width="16" height="15.996" viewBox="0 0 16 15.996">
  <path id="sms" d="M8,2.25A7.729,7.729,0,0,0,0,9.678a7.068,7.068,0,0,0,1.781,4.668A9.406,9.406,0,0,1,.068,17.764a.315.315,0,0,0-.047.311.246.246,0,0,0,.228.172,6.665,6.665,0,0,0,4.393-1.836,8.481,8.481,0,0,0,3.356.7,7.729,7.729,0,0,0,8-7.428A7.73,7.73,0,0,0,8,2.25ZM4.007,11.964H3.625a.271.271,0,0,1-.25-.286v-.572a.271.271,0,0,1,.25-.286h.385c.188,0,.325-.125.325-.236a.2.2,0,0,0-.065-.136l-.684-.672a1.4,1.4,0,0,1-.415-1A1.353,1.353,0,0,1,4.495,7.392h.378a.271.271,0,0,1,.25.286V8.25a.271.271,0,0,1-.25.291H4.491c-.188,0-.325.125-.325.236a.2.2,0,0,0,.065.136l.684.671a1.4,1.4,0,0,1,.415,1,1.351,1.351,0,0,1-1.324,1.377ZM10,11.678a.271.271,0,0,1-.25.286h-.5A.271.271,0,0,1,9,11.678V9.243l-.775,1.993a.237.237,0,0,1-.447,0L7,9.243v2.436a.271.271,0,0,1-.25.286h-.5A.271.271,0,0,1,6,11.678V7.964a.541.541,0,0,1,.5-.572H7a.5.5,0,0,1,.447.314L8,8.971l.553-1.264A.5.5,0,0,1,9,7.393h.5a.541.541,0,0,1,.5.572Zm1.509.286h-.382a.271.271,0,0,1-.25-.286v-.572a.271.271,0,0,1,.25-.286h.385c.188,0,.325-.125.325-.236a.2.2,0,0,0-.065-.136l-.684-.671a1.4,1.4,0,0,1-.415-1A1.353,1.353,0,0,1,12,7.393h.381a.271.271,0,0,1,.25.286V8.25a.271.271,0,0,1-.25.286h-.385c-.188,0-.325.125-.325.236a.2.2,0,0,0,.065.136l.684.671a1.4,1.4,0,0,1,.415,1,1.349,1.349,0,0,1-1.324,1.382Z" transform="translate(0 -2.25)" fill="#fff"/>
</svg>
