<svg xmlns="http://www.w3.org/2000/svg" width="22" height="22" viewBox="0 0 22 22">
  <path id="sms" d="M11,2.25C4.924,2.25,0,6.822,0,12.464a9.718,9.718,0,0,0,2.449,6.418,12.933,12.933,0,0,1-2.355,4.7.433.433,0,0,0-.064.427.338.338,0,0,0,.314.236,9.164,9.164,0,0,0,6.041-2.524A11.662,11.662,0,0,0,11,22.679c6.076,0,11-4.572,11-10.214S17.076,2.25,11,2.25ZM5.509,15.607H4.984a.372.372,0,0,1-.344-.393v-.786a.372.372,0,0,1,.344-.393h.529c.258,0,.447-.172.447-.324a.272.272,0,0,0-.09-.187L4.929,12.6a1.928,1.928,0,0,1-.571-1.38,1.861,1.861,0,0,1,1.822-1.9H6.7a.372.372,0,0,1,.344.393V10.5A.372.372,0,0,1,6.7,10.9H6.175c-.258,0-.447.172-.447.324a.272.272,0,0,0,.09.187l.941.923a1.928,1.928,0,0,1,.571,1.38A1.858,1.858,0,0,1,5.509,15.607Zm8.241-.393a.372.372,0,0,1-.344.393h-.687a.372.372,0,0,1-.344-.393V11.865l-1.066,2.74a.326.326,0,0,1-.614,0l-1.07-2.74v3.349a.372.372,0,0,1-.344.393H8.594a.372.372,0,0,1-.344-.393V10.107a.744.744,0,0,1,.688-.786h.688a.681.681,0,0,1,.614.432L11,11.492l.761-1.738a.685.685,0,0,1,.614-.432h.688a.744.744,0,0,1,.687.786Zm2.075.393H15.3a.372.372,0,0,1-.344-.393v-.786a.372.372,0,0,1,.344-.393h.529c.258,0,.447-.172.447-.324a.272.272,0,0,0-.09-.187l-.941-.923a1.928,1.928,0,0,1-.571-1.38,1.861,1.861,0,0,1,1.822-1.9h.524a.372.372,0,0,1,.344.393V10.5a.372.372,0,0,1-.344.393h-.529c-.258,0-.447.172-.447.324a.272.272,0,0,0,.09.187l.941.923a1.928,1.928,0,0,1,.571,1.38A1.855,1.855,0,0,1,15.825,15.607Z" transform="translate(0 -2.25)" fill="#fff"/>
</svg>
