<svg xmlns="http://www.w3.org/2000/svg" width="24" height="24" viewBox="0 0 24 24">
  <path id="Tasks" d="M9.125,2A7.125,7.125,0,0,0,2,9.125v9.75A7.125,7.125,0,0,0,9.125,26h9.75A7.125,7.125,0,0,0,26,18.875V9.125A7.125,7.125,0,0,0,18.875,2ZM4.25,9.125A4.875,4.875,0,0,1,9.125,4.25h9.75A4.875,4.875,0,0,1,23.75,9.125v9.75a4.875,4.875,0,0,1-4.875,4.875H9.125A4.875,4.875,0,0,1,4.25,18.875Zm15.129,2.989a1.125,1.125,0,0,0-1.514-1.665L12.641,15.2l-1.962-1.784A1.125,1.125,0,1,0,9.165,15.08l2.719,2.472a1.125,1.125,0,0,0,1.514,0Z" transform="translate(-2 -2)" fill="#fff" fill-rule="evenodd"/>
</svg>
