<svg xmlns="http://www.w3.org/2000/svg" width="16" height="16" viewBox="0 0 16 16">
  <path id="tier" d="M.388,4.625l7.279,3.3a.8.8,0,0,0,.665,0l7.279-3.3a.7.7,0,0,0,0-1.251L8.333.072a.8.8,0,0,0-.665,0l-7.28,3.3a.7.7,0,0,0,0,1.251ZM15.612,7.384,13.8,6.561,8.745,8.851a1.8,1.8,0,0,1-1.491,0L2.2,6.561.388,7.384a.7.7,0,0,0,0,1.25l7.279,3.3a.8.8,0,0,0,.665,0l7.28-3.3a.7.7,0,0,0,0-1.25Zm0,3.994-1.808-.82L8.745,12.851a1.8,1.8,0,0,1-1.491,0L2.2,10.558l-1.809.82a.7.7,0,0,0,0,1.25l7.279,3.3a.8.8,0,0,0,.665,0l7.28-3.3a.7.7,0,0,0,0-1.25Z" transform="translate(0 0.001)" fill="#fff"/>
</svg>
