<svg xmlns="http://www.w3.org/2000/svg" width="22" height="19.291" viewBox="0 0 22 19.291">
  <path id="users" d="M3.3,10.518A2.528,2.528,0,0,0,5.5,7.762,2.528,2.528,0,0,0,3.3,5.006,2.528,2.528,0,0,0,1.1,7.762,2.528,2.528,0,0,0,3.3,10.518Zm15.4,0a2.528,2.528,0,0,0,2.2-2.756,2.528,2.528,0,0,0-2.2-2.756,2.528,2.528,0,0,0-2.2,2.756A2.528,2.528,0,0,0,18.7,10.518ZM19.8,11.9H17.6a2,2,0,0,0-1.55.8,6.474,6.474,0,0,1,2.582,4.711H20.9A1.261,1.261,0,0,0,22,16.029V14.651A2.528,2.528,0,0,0,19.8,11.9Zm-8.8,0c2.128,0,3.85-2.157,3.85-4.823S13.128,2.25,11,2.25,7.15,4.407,7.15,7.073,8.872,11.9,11,11.9Zm2.64,1.378h-.285a4.368,4.368,0,0,1-4.709,0H8.36c-2.186,0-3.96,2.222-3.96,4.961v1.24a1.9,1.9,0,0,0,1.65,2.067h9.9a1.9,1.9,0,0,0,1.65-2.067v-1.24C17.6,15.5,15.826,13.273,13.64,13.273ZM5.95,12.7a2,2,0,0,0-1.55-.8H2.2A2.528,2.528,0,0,0,0,14.651v1.378a1.261,1.261,0,0,0,1.1,1.378H3.365A6.488,6.488,0,0,1,5.95,12.7Z" transform="translate(0 -2.25)" fill="#fff"/>
</svg>
