<svg id="User" xmlns="http://www.w3.org/2000/svg" width="24" height="27.429" viewBox="0 0 24 27.429">
  <path id="User-2" data-name="User" d="M18.89,8.4A3.891,3.891,0,1,1,15,4.571,3.86,3.86,0,0,1,18.89,8.4Zm2.571,0A6.462,6.462,0,1,1,15,2,6.431,6.431,0,0,1,21.461,8.4Zm-9.1,10.8h5.268a7,7,0,0,1,6.794,7.181.533.533,0,0,1-.14.374.292.292,0,0,1-.215.1H5.927a.291.291,0,0,1-.215-.1.532.532,0,0,1-.14-.374A7,7,0,0,1,12.366,19.2ZM3,26.381a9.565,9.565,0,0,1,9.366-9.752h5.268A9.565,9.565,0,0,1,27,26.381a2.989,2.989,0,0,1-2.927,3.048H5.927A2.989,2.989,0,0,1,3,26.381Z" transform="translate(-3 -2)" fill="#fff" fill-rule="evenodd"/>
</svg>
