<svg xmlns="http://www.w3.org/2000/svg" width="16" height="14.018" viewBox="0 0 16 14.018">
  <path id="users" d="M2.394,8.257a1.837,1.837,0,0,0,1.6-2,1.837,1.837,0,0,0-1.6-2,1.837,1.837,0,0,0-1.6,2,1.837,1.837,0,0,0,1.6,2Zm11.188,0a1.837,1.837,0,0,0,1.6-2,1.837,1.837,0,0,0-1.6-2,1.837,1.837,0,0,0-1.6,2,1.837,1.837,0,0,0,1.6,2Zm.8,1h-1.6a1.453,1.453,0,0,0-1.126.581,4.7,4.7,0,0,1,1.876,3.422H15.18a.916.916,0,0,0,.8-1v-1a1.837,1.837,0,0,0-1.6-2Zm-6.393,0c1.546,0,2.8-1.567,2.8-3.5S9.534,2.25,7.988,2.25s-2.8,1.567-2.8,3.5,1.251,3.507,2.8,3.507Zm1.918,1H9.7a3.173,3.173,0,0,1-3.421,0H6.07c-1.588,0-2.877,1.614-2.877,3.6v.9a1.38,1.38,0,0,0,1.2,1.5h7.192a1.38,1.38,0,0,0,1.2-1.5v-.9c0-1.99-1.289-3.608-2.877-3.608Zm-5.587-.42a1.453,1.453,0,0,0-1.126-.581H1.6a1.837,1.837,0,0,0-1.6,2v1a.916.916,0,0,0,.8,1H2.441a4.713,4.713,0,0,1,1.878-3.42Z" transform="translate(0.012 -2.25)" fill="#fff"/>
</svg>
