<svg xmlns="http://www.w3.org/2000/svg" width="23" height="24.43" viewBox="0 0 23 24.43">
  <path id="User" d="M18.225,7.7a3.464,3.464,0,0,1-2.26,3.241,3.939,3.939,0,0,1-4.083-.716,3.291,3.291,0,0,1-.835-3.784A3.74,3.74,0,0,1,14.5,4.29,3.58,3.58,0,0,1,18.225,7.7Zm2.463,0a5.759,5.759,0,0,1-3.781,5.357,6.541,6.541,0,0,1-6.768-1.212A5.465,5.465,0,0,1,8.771,5.565,6.212,6.212,0,0,1,14.5,2a5.962,5.962,0,0,1,6.191,5.7Zm-8.719,9.619h5.048a6.452,6.452,0,0,1,6.51,6.4.456.456,0,0,1-.134.333.289.289,0,0,1-.206.089H5.8a.288.288,0,0,1-.206-.089.455.455,0,0,1-.134-.333,6.452,6.452,0,0,1,6.51-6.4ZM3,23.715c-.1-4.7,3.917-8.589,8.974-8.686h5.048c5.058.1,9.074,3.984,8.974,8.686a2.759,2.759,0,0,1-2.8,2.715H5.8A2.759,2.759,0,0,1,3,23.715Z" transform="translate(-2.998 -2)" fill="#fff" fill-rule="evenodd"/>
</svg>
