<svg xmlns="http://www.w3.org/2000/svg" width="16" height="11.429" viewBox="0 0 16 11.429">
  <path id="warehouse" d="M13.488,971.493,6.25,975.683H7.774v6.1a.788.788,0,0,0,.762.762h2.286v-3.81a.76.76,0,0,1,.762-.762h5.333a.769.769,0,0,1,.762.762v3.81h2.286a.76.76,0,0,0,.762-.762v-6.1H22.25l-7.238-4.191a3.092,3.092,0,0,0-.762-.381A3.032,3.032,0,0,0,13.488,971.493Zm-1.9,7.238v.762h5.333v-.762Zm0,1.524v.762h5.333v-.762Zm0,1.524v.762h5.333v-.762Z" transform="translate(-6.25 -971.112)" fill="#fff"/>
</svg>
